<?xml version="1.0"?>
<svg height="564" width="590" xmlns="http://www.w3.org/2000/svg">
<g style="font-family: monospace;">
<rect x="0" y="0" height="564" width="590" fill="white" stroke="black"/>

<rect x="80" y="58" width="50" height="258" fill="brown" stroke="brown" stroke-width="10" stroke-linejoin="round" opacity="0.1"/>
<rect x="200" y="58" width="50" height="258" fill="brown" stroke="brown" stroke-width="10" stroke-linejoin="round" opacity="0.1"/>
<rect x="320" y="58" width="50" height="258" fill="brown" stroke="brown" stroke-width="10" stroke-linejoin="round" opacity="0.1"/>
<rect x="440" y="58" width="50" height="258" fill="brown" stroke="brown" stroke-width="10" stroke-linejoin="round" opacity="0.1"/>
<rect x="30" y="80" width="530" height="54" fill="teal" stroke="teal" stroke-width="10" stroke-linejoin="round" opacity="0.1"/>
<rect x="30" y="200" width="530" height="54" fill="teal" stroke="teal" stroke-width="10" stroke-linejoin="round" opacity="0.1"/>

<text x="20" y="34" style="font-size: 20px; font-weight: bold; font-family: sans-serif;">
Container/codec test matrix
</text>
<text x="80" y="72" style="font-size: 10px; font-weight: bold; font-family: sans-serif; fill: brown;"  transform="rotate(-15 80 72)">
asf
</text>
<text x="140" y="72" style="font-size: 10px; font-weight: bold; font-family: sans-serif; fill: brown;"  transform="rotate(-15 140 72)">
avi
</text>
<text x="200" y="72" style="font-size: 10px; font-weight: bold; font-family: sans-serif; fill: brown;"  transform="rotate(-15 200 72)">
flv
</text>
<text x="260" y="72" style="font-size: 10px; font-weight: bold; font-family: sans-serif; fill: brown;"  transform="rotate(-15 260 72)">
mkv
</text>
<text x="320" y="72" style="font-size: 10px; font-weight: bold; font-family: sans-serif; fill: brown;"  transform="rotate(-15 320 72)">
mov
</text>
<text x="380" y="72" style="font-size: 10px; font-weight: bold; font-family: sans-serif; fill: brown;"  transform="rotate(-15 380 72)">
mp4
</text>
<text x="440" y="72" style="font-size: 10px; font-weight: bold; font-family: sans-serif; fill: brown;"  transform="rotate(-15 440 72)">
nut
</text>
<text x="500" y="72" style="font-size: 10px; font-weight: bold; font-family: sans-serif; fill: brown;"  transform="rotate(-15 500 72)">
ogm
</text>
<text x="30" y="95" style="font-size: 10px; font-weight: bold; font-family: sans-serif; fill: teal;"  transform="rotate(-15 30 95)">
flv
</text>
<text x="80" y="90" style="font-size: 10px; fill: black;">
aac
</text>
<text x="80" y="104" style="font-size: 10px; fill: black;">
ac3
</text>
<text x="80" y="118" style="font-size: 10px; fill: black;">
mp3
</text>
<text x="80" y="132" style="font-size: 10px; fill: black;">
vorbis
</text>
<text x="140" y="90" style="font-size: 10px; fill: black;">
aac
</text>
<text x="140" y="104" style="font-size: 10px; fill: black;">
ac3
</text>
<text x="140" y="118" style="font-size: 10px; fill: black;">
mp3
</text>
<text x="140" y="132" style="font-size: 10px; fill: black;">
vorbis
</text>
<text x="200" y="90" style="font-size: 10px; fill: black;">
mp3
</text>
<text x="260" y="90" style="font-size: 10px; fill: black;">
aac
</text>
<text x="260" y="104" style="font-size: 10px; fill: black;">
ac3
</text>
<text x="260" y="118" style="font-size: 10px; fill: black;">
mp3
</text>
<text x="260" y="132" style="font-size: 10px; fill: black;">
vorbis
</text>
<text x="320" y="90" style="font-size: 10px; fill: black;">
aac
</text>
<text x="320" y="104" style="font-size: 10px; fill: black;">
ac3
</text>
<text x="320" y="118" style="font-size: 10px; fill: black;">
mp3
</text>
<text x="320" y="132" style="font-size: 10px; fill: black;">
vorbis
</text>
<text x="380" y="90" style="font-size: 10px; fill: black;">
aac
</text>
<text x="380" y="104" style="font-size: 10px; fill: black;">
ac3
</text>
<text x="380" y="118" style="font-size: 10px; fill: black;">
mp3
</text>
<text x="380" y="132" style="font-size: 10px; fill: black;">
vorbis
</text>
<text x="440" y="90" style="font-size: 10px; fill: black;">
aac
</text>
<text x="440" y="104" style="font-size: 10px; fill: black;">
ac3
</text>
<text x="440" y="118" style="font-size: 10px; fill: black;">
mp3
</text>
<text x="440" y="132" style="font-size: 10px; fill: black;">
vorbis
</text>
<text x="500" y="90" style="font-size: 10px; fill: black;">
aac
</text>
<text x="500" y="104" style="font-size: 10px; fill: black;">
ac3
</text>
<text x="500" y="118" style="font-size: 10px; fill: black;">
mp3
</text>
<text x="500" y="132" style="font-size: 10px; fill: black;">
vorbis
</text>
<text x="30" y="155" style="font-size: 10px; font-weight: bold; font-family: sans-serif; fill: teal;"  transform="rotate(-15 30 155)">
h264
</text>
<text x="80" y="150" style="font-size: 10px; fill: black;">
aac
</text>
<text x="80" y="164" style="font-size: 10px; fill: black;">
ac3
</text>
<text x="80" y="178" style="font-size: 10px; fill: black;">
mp3
</text>
<text x="80" y="192" style="font-size: 10px; fill: black;">
vorbis
</text>
<text x="140" y="150" style="font-size: 10px; fill: black;">
aac
</text>
<text x="140" y="164" style="font-size: 10px; fill: black;">
ac3
</text>
<text x="140" y="178" style="font-size: 10px; fill: black;">
mp3
</text>
<text x="140" y="192" style="font-size: 10px; fill: black;">
vorbis
</text>
<text x="260" y="150" style="font-size: 10px; fill: black;">
aac
</text>
<text x="260" y="164" style="font-size: 10px; fill: black;">
ac3
</text>
<text x="260" y="178" style="font-size: 10px; fill: black;">
mp3
</text>
<text x="260" y="192" style="font-size: 10px; fill: black;">
vorbis
</text>
<text x="320" y="150" style="font-size: 10px; fill: black;">
aac
</text>
<text x="320" y="164" style="font-size: 10px; fill: black;">
ac3
</text>
<text x="320" y="178" style="font-size: 10px; fill: black;">
mp3
</text>
<text x="320" y="192" style="font-size: 10px; fill: black;">
vorbis
</text>
<text x="380" y="150" style="font-size: 10px; fill: black;">
aac
</text>
<text x="380" y="164" style="font-size: 10px; fill: black;">
ac3
</text>
<text x="380" y="178" style="font-size: 10px; fill: black;">
mp3
</text>
<text x="380" y="192" style="font-size: 10px; fill: black;">
vorbis
</text>
<text x="440" y="150" style="font-size: 10px; fill: black;">
aac
</text>
<text x="440" y="164" style="font-size: 10px; fill: black;">
ac3
</text>
<text x="440" y="178" style="font-size: 10px; fill: black;">
mp3
</text>
<text x="440" y="192" style="font-size: 10px; fill: black;">
vorbis
</text>
<text x="500" y="150" style="font-size: 10px; fill: black;">
aac
</text>
<text x="500" y="164" style="font-size: 10px; fill: black;">
ac3
</text>
<text x="500" y="178" style="font-size: 10px; fill: black;">
mp3
</text>
<text x="500" y="192" style="font-size: 10px; fill: black;">
vorbis
</text>
<text x="30" y="215" style="font-size: 10px; font-weight: bold; font-family: sans-serif; fill: teal;"  transform="rotate(-15 30 215)">
mpeg4
</text>
<text x="80" y="210" style="font-size: 10px; fill: black;">
aac
</text>
<text x="80" y="224" style="font-size: 10px; fill: black;">
ac3
</text>
<text x="80" y="238" style="font-size: 10px; fill: black;">
mp3
</text>
<text x="80" y="252" style="font-size: 10px; fill: black;">
vorbis
</text>
<text x="140" y="210" style="font-size: 10px; fill: black;">
aac
</text>
<text x="140" y="224" style="font-size: 10px; fill: black;">
ac3
</text>
<text x="140" y="238" style="font-size: 10px; fill: black;">
mp3
</text>
<text x="140" y="252" style="font-size: 10px; fill: black;">
vorbis
</text>
<text x="260" y="210" style="font-size: 10px; fill: black;">
aac
</text>
<text x="260" y="224" style="font-size: 10px; fill: black;">
ac3
</text>
<text x="260" y="238" style="font-size: 10px; fill: black;">
mp3
</text>
<text x="260" y="252" style="font-size: 10px; fill: black;">
vorbis
</text>
<text x="320" y="210" style="font-size: 10px; fill: black;">
aac
</text>
<text x="320" y="224" style="font-size: 10px; fill: black;">
ac3
</text>
<text x="320" y="238" style="font-size: 10px; fill: black;">
mp3
</text>
<text x="320" y="252" style="font-size: 10px; fill: black;">
vorbis
</text>
<text x="380" y="210" style="font-size: 10px; fill: black;">
aac
</text>
<text x="380" y="224" style="font-size: 10px; fill: black;">
ac3
</text>
<text x="380" y="238" style="font-size: 10px; fill: black;">
mp3
</text>
<text x="380" y="252" style="font-size: 10px; fill: black;">
vorbis
</text>
<text x="440" y="210" style="font-size: 10px; fill: black;">
aac
</text>
<text x="440" y="224" style="font-size: 10px; fill: black;">
ac3
</text>
<text x="440" y="238" style="font-size: 10px; fill: black;">
mp3
</text>
<text x="440" y="252" style="font-size: 10px; fill: black;">
vorbis
</text>
<text x="500" y="210" style="font-size: 10px; fill: black;">
aac
</text>
<text x="500" y="224" style="font-size: 10px; fill: black;">
ac3
</text>
<text x="500" y="238" style="font-size: 10px; fill: black;">
mp3
</text>
<text x="500" y="252" style="font-size: 10px; fill: black;">
vorbis
</text>
<text x="30" y="275" style="font-size: 10px; font-weight: bold; font-family: sans-serif; fill: teal;"  transform="rotate(-15 30 275)">
xvid
</text>
<text x="80" y="270" style="font-size: 10px; fill: maroon;">
aac
</text>
<text x="80" y="284" style="font-size: 10px; fill: black;">
ac3
</text>
<text x="80" y="298" style="font-size: 10px; fill: black;">
mp3
</text>
<text x="80" y="312" style="font-size: 10px; fill: black;">
vorbis
</text>
<text x="140" y="270" style="font-size: 10px; fill: black;">
aac
</text>
<text x="140" y="284" style="font-size: 10px; fill: black;">
ac3
</text>
<text x="140" y="298" style="font-size: 10px; fill: black;">
mp3
</text>
<text x="140" y="312" style="font-size: 10px; fill: black;">
vorbis
</text>
<text x="260" y="270" style="font-size: 10px; fill: black;">
aac
</text>
<text x="260" y="284" style="font-size: 10px; fill: black;">
ac3
</text>
<text x="260" y="298" style="font-size: 10px; fill: black;">
mp3
</text>
<text x="260" y="312" style="font-size: 10px; fill: black;">
vorbis
</text>
<text x="320" y="270" style="font-size: 10px; fill: black;">
aac
</text>
<text x="320" y="284" style="font-size: 10px; fill: black;">
ac3
</text>
<text x="320" y="298" style="font-size: 10px; fill: black;">
mp3
</text>
<text x="320" y="312" style="font-size: 10px; fill: black;">
vorbis
</text>
<text x="380" y="270" style="font-size: 10px; fill: black;">
aac
</text>
<text x="380" y="284" style="font-size: 10px; fill: black;">
ac3
</text>
<text x="380" y="298" style="font-size: 10px; fill: black;">
mp3
</text>
<text x="380" y="312" style="font-size: 10px; fill: black;">
vorbis
</text>
<text x="440" y="270" style="font-size: 10px; fill: black;">
aac
</text>
<text x="440" y="284" style="font-size: 10px; fill: black;">
ac3
</text>
<text x="440" y="298" style="font-size: 10px; fill: black;">
mp3
</text>
<text x="440" y="312" style="font-size: 10px; fill: black;">
vorbis
</text>
<text x="500" y="270" style="font-size: 10px; fill: black;">
aac
</text>
<text x="500" y="284" style="font-size: 10px; fill: black;">
ac3
</text>
<text x="500" y="298" style="font-size: 10px; fill: black;">
mp3
</text>
<text x="500" y="312" style="font-size: 10px; fill: black;">
vorbis
</text>
<text x="20" y="345" style="font-size: 12px;">
encoding&amp;playback test ok: in <tspan style="fill: black; font-weight: bold;">
this color
</tspan>
</text>
<text x="20" y="362" style="font-size: 12px;">
playback test failed: in <tspan style="fill: maroon; font-weight: bold;">
this color
</tspan>
</text>
<text x="20" y="379" style="font-size: 12px;">
encoding test failed: not shown
</text>
<text x="20" y="413" style="font-size: 12px;">
Tools detected:
</text>
<text x="20" y="430" style="font-size: 12px; fill: green;">
- mencoder 2:1.0~rc2-0ubuntu13
</text>
<text x="20" y="447" style="font-size: 12px; fill: green;">
- mkvmerge v2.0.2
</text>
<text x="20" y="464" style="font-size: 12px; fill: green;">
- mp4creator 1.6
</text>
<text x="20" y="481" style="font-size: 12px; fill: green;">
- mplayer 1.0rc2-4.2.3
</text>
<text x="20" y="498" style="font-size: 12px; fill: green;">
- ogmmerge v1.5
</text>
<text x="20" y="515" style="font-size: 12px; fill: green;">
- undvd 0.7.0
</text>
<text x="20" y="544" style="font-size: 12px;">
# Generated with codectest (time: 9min)
</text>
</g>
</svg>